<svg width="7" height="7" viewBox="0 0 7 7" fill="none" xmlns="http://www.w3.org/2000/svg">
  <path fill-rule="evenodd" clip-rule="evenodd" d="M0 0h1v1h-1z" fill="#808080" />
  <path fill-rule="evenodd" clip-rule="evenodd" d="M2 0h1v1h-1z" fill="#808080" />
  <path fill-rule="evenodd" clip-rule="evenodd" d="M4 0h1v1h-1z" fill="#808080" />
  <path fill-rule="evenodd" clip-rule="evenodd" d="M6 0h1v1h-1z" fill="#808080" />

  <path fill-rule="evenodd" clip-rule="evenodd" d="M1 1h1v1h-1z" fill="#808080" />
  <path fill-rule="evenodd" clip-rule="evenodd" d="M3 1h1v1h-1z" fill="#808080" />
  <path fill-rule="evenodd" clip-rule="evenodd" d="M5 1h1v1h-1z" fill="#808080" />

  <path fill-rule="evenodd" clip-rule="evenodd" d="M0 2h1v1h-1z" fill="#808080" />
  <path fill-rule="evenodd" clip-rule="evenodd" d="M2 2h1v1h-1z" fill="#808080" />
  <path fill-rule="evenodd" clip-rule="evenodd" d="M4 2h1v1h-1z" fill="#808080" />
  <path fill-rule="evenodd" clip-rule="evenodd" d="M6 2h1v1h-1z" fill="#808080" />

  <path fill-rule="evenodd" clip-rule="evenodd" d="M1 3h1v1h-1z" fill="#808080" />
  <path fill-rule="evenodd" clip-rule="evenodd" d="M3 3h1v1h-1z" fill="#808080" />
  <path fill-rule="evenodd" clip-rule="evenodd" d="M5 3h1v1h-1z" fill="#808080" />

  <path fill-rule="evenodd" clip-rule="evenodd" d="M0 4h1v1h-1z" fill="#808080" />
  <path fill-rule="evenodd" clip-rule="evenodd" d="M2 4h1v1h-1z" fill="#808080" />
  <path fill-rule="evenodd" clip-rule="evenodd" d="M4 4h1v1h-1z" fill="#808080" />
  <path fill-rule="evenodd" clip-rule="evenodd" d="M6 4h1v1h-1z" fill="#808080" />

  <path fill-rule="evenodd" clip-rule="evenodd" d="M1 5h1v1h-1z" fill="#808080" />
  <path fill-rule="evenodd" clip-rule="evenodd" d="M3 5h1v1h-1z" fill="#808080" />
  <path fill-rule="evenodd" clip-rule="evenodd" d="M5 5h1v1h-1z" fill="#808080" />

  <path fill-rule="evenodd" clip-rule="evenodd" d="M0 6h1v1h-1z" fill="#808080" />
  <path fill-rule="evenodd" clip-rule="evenodd" d="M2 6h1v1h-1z" fill="#808080" />
  <path fill-rule="evenodd" clip-rule="evenodd" d="M4 6h1v1h-1z" fill="#808080" />
  <path fill-rule="evenodd" clip-rule="evenodd" d="M6 6h1v1h-1z" fill="#808080" />
</svg>